<svg width="591" height="682" viewBox="0 0 591 682" fill="none" xmlns="http://www.w3.org/2000/svg">
<rect width="340.657" height="340.657" transform="matrix(0.866025 -0.5 2.20305e-08 1 294.668 340.717)" fill="#1B92D1"/>
<rect width="340.253" height="340.858" transform="matrix(0.866025 0.5 -2.20305e-08 1 0 170.389)" fill="#37AFE2"/>
<rect width="340.657" height="340.657" transform="matrix(0.866025 -0.5 0.866025 0.5 0 170.389)" fill="#37AFE2"/>
<path d="M131.757 539.459L131.757 331.667L102.341 314.684L102.341 277.721L192.318 329.669L192.318 366.632L162.902 349.649L162.902 557.441L131.757 539.459Z" fill="#ECF5FB"/>
<path d="M401.014 572.117L401.014 327.362L432.736 309.047C443.503 302.831 452.779 299.695 460.566 299.64C468.448 299.418 474.504 302.748 478.734 309.63C483.06 316.456 485.223 327.251 485.223 342.014C485.223 353.78 483.877 364.824 481.185 375.147C478.59 385.415 473.495 395.516 465.901 405.45C473.591 405.894 479.119 410.473 482.483 419.187C485.848 427.789 487.53 439.028 487.53 452.903C487.53 466.556 485.607 479.709 481.762 492.363C478.013 504.962 472.438 516.339 465.036 526.496C457.73 536.486 448.694 544.589 437.927 550.805L401.014 572.117ZM432.16 518.504C441.58 513.065 447.781 506.266 450.761 498.108C453.741 489.838 455.231 479.654 455.231 467.555C455.231 455.234 453.741 446.77 450.761 442.164C447.781 437.446 441.58 437.807 432.16 443.246L432.16 518.504ZM432.16 410.279C440.907 405.228 446.915 398.985 450.184 391.548C453.548 384.055 455.231 374.87 455.231 363.992C455.231 353.003 453.5 345.899 450.04 342.68C446.675 339.294 440.715 340.071 432.16 345.011L432.16 410.279Z" fill="#ECF5FB"/>
<path d="M385.636 240.709L173.672 118.331L204.818 100.349L416.782 222.727L385.636 240.709Z" fill="#ECF5FB"/>
</svg>
